<?xml version="1.0" encoding="UTF-8"?>
<svg version="1.1" xmlns="http://www.w3.org/2000/svg" width="512" height="512">
<path d="M0 0 C2.10052024 1.94050688 4.17925573 3.90277572 6.25 5.875 C7.148396 6.73037354 7.148396 6.73037354 8.06494141 7.60302734 C16.95711736 16.13263199 24.95107735 24.95070671 32.25 34.875 C32.88929443 35.73109863 32.88929443 35.73109863 33.54150391 36.60449219 C40.05799189 45.34738527 45.83579021 54.41451241 51.25 63.875 C51.90613281 64.99777344 52.56226563 66.12054688 53.23828125 67.27734375 C67.46304627 92.61966058 76.10098331 121.20513238 80.25 149.875 C80.36714355 150.67228516 80.48428711 151.46957031 80.60498047 152.29101562 C89.65839898 217.02363057 71.21986412 282.90162173 32.25 334.875 C29.34477475 338.62951633 26.35150374 342.28137574 23.25 345.875 C22.59257812 346.64328125 21.93515625 347.4115625 21.2578125 348.203125 C10.02118049 361.00864525 -2.00599955 372.8010276 -15.75 382.875 C-16.60392334 383.51211914 -16.60392334 383.51211914 -17.47509766 384.16210938 C-26.21950273 390.68035212 -35.28752338 396.45965189 -44.75 401.875 C-45.87277344 402.53113281 -46.99554688 403.18726563 -48.15234375 403.86328125 C-73.49466058 418.08804627 -102.08013238 426.72598331 -130.75 430.875 C-131.54728516 430.99214355 -132.34457031 431.10928711 -133.16601562 431.22998047 C-197.89863057 440.28339898 -263.77662173 421.84486412 -315.75 382.875 C-319.50451633 379.96977475 -323.15637574 376.97650374 -326.75 373.875 C-327.90242188 372.88886719 -327.90242188 372.88886719 -329.078125 371.8828125 C-341.88364525 360.64618049 -353.6760276 348.61900045 -363.75 334.875 C-364.38711914 334.02107666 -364.38711914 334.02107666 -365.03710938 333.14990234 C-371.55535212 324.40549727 -377.33465189 315.33747662 -382.75 305.875 C-383.40613281 304.75222656 -384.06226563 303.62945312 -384.73828125 302.47265625 C-398.96304627 277.13033942 -407.60098331 248.54486762 -411.75 219.875 C-411.86714355 219.07771484 -411.98428711 218.28042969 -412.10498047 217.45898438 C-421.08940847 153.21965666 -402.91492635 87.82529899 -364.75 35.875 C-358.57292336 27.78522451 -351.76557429 20.24102851 -344.75 12.875 C-344.17975098 12.27606934 -343.60950195 11.67713867 -343.02197266 11.06005859 C-334.49236801 2.16788264 -325.67429329 -5.82607735 -315.75 -13.125 C-315.17926758 -13.55119629 -314.60853516 -13.97739258 -314.02050781 -14.41650391 C-305.27761473 -20.93299189 -296.21048759 -26.71079021 -286.75 -32.125 C-285.62722656 -32.78113281 -284.50445312 -33.43726562 -283.34765625 -34.11328125 C-258.00533942 -48.33804627 -229.41986762 -56.97598331 -200.75 -61.125 C-199.95271484 -61.24214355 -199.15542969 -61.35928711 -198.33398438 -61.47998047 C-126.89221899 -71.47173195 -53.34144633 -48.09242103 0 0 Z " fill="#E0EAEF" transform="translate(421.75,71.125)"/>
<path d="M0 0 C0 28.05 0 56.1 0 85 C-10.395 85.99 -10.395 85.99 -21 87 C-33.86014582 89.72790972 -45.32775904 93.0868452 -57 99 C-57.60005859 99.30276855 -58.20011719 99.60553711 -58.81835938 99.91748047 C-87.7887788 114.83708851 -109.88803467 140.75888321 -120.875 171.375 C-123.0453377 178.38274531 -124.38086463 185.53479162 -125.56982422 192.76904297 C-126.69045229 199.36663141 -128.09484894 204.91488807 -133.5 209.3125 C-134.0878125 209.80363281 -134.675625 210.29476562 -135.28125 210.80078125 C-138.66280371 213.1601835 -141.74676378 213.13916068 -145.73730469 213.17700195 C-146.91572937 213.18983719 -148.09415405 213.20267242 -149.30828857 213.21589661 C-150.58327209 213.22328354 -151.85825562 213.23067047 -153.171875 213.23828125 C-154.48279114 213.246353 -155.79370728 213.25442474 -157.14434814 213.26274109 C-159.92175161 213.27775621 -162.69912961 213.28759924 -165.4765625 213.29516602 C-169.0218031 213.30621259 -172.56641295 213.34059636 -176.11143112 213.38033772 C-179.50655303 213.41288649 -182.90160918 213.41728983 -186.296875 213.42578125 C-187.5637616 213.44328934 -188.83064819 213.46079742 -190.13592529 213.47883606 C-196.97854994 213.46202833 -201.49425126 213.21500789 -207 209 C-212.67509527 202.72752628 -212.4260824 197.36780725 -212.13623047 189.25195312 C-211.70270373 182.08555418 -210.39286081 175.03269102 -209 168 C-208.76651855 166.81494873 -208.76651855 166.81494873 -208.52832031 165.60595703 C-200.48261447 126.41325224 -179.35611605 91.66267681 -152 63 C-151.23945313 62.19820312 -150.47890625 61.39640625 -149.6953125 60.5703125 C-110.56879219 20.3298699 -55.32420107 0 0 0 Z " fill="#5DCEC4" transform="translate(256,43)"/>
<path d="M0 0 C4.63928546 3.80041962 8.81433572 7.73415271 12.6875 12.3125 C13.45223633 13.21645508 13.45223633 13.21645508 14.23242188 14.13867188 C41.27351564 46.62116365 61.46172193 89.83515217 62.3125 132.6875 C62.36857422 134.54955078 62.36857422 134.54955078 62.42578125 136.44921875 C61.83823228 141.34905374 60.16618172 144.05370206 56.49693298 147.35049438 C50.08015139 151.98996695 43.77642146 151.70892745 36.0859375 151.62890625 C34.74410815 151.62973651 33.40227892 151.6322018 32.06045532 151.63621521 C29.26134279 151.63905986 26.46303638 151.6245016 23.6640625 151.59692383 C20.08842971 151.56277504 16.51423037 151.56889281 12.93852806 151.5875864 C10.17251771 151.59818539 7.4068374 151.58919383 4.6408577 151.57420158 C2.68558324 151.56655158 0.7302686 151.57384921 -1.2250061 151.58143616 C-12.13361885 151.43687238 -12.13361885 151.43687238 -17 147 C-17.7425 146.360625 -18.485 145.72125 -19.25 145.0625 C-22.8400565 140.83136198 -23.52790384 135.77031777 -24.4375 130.4375 C-24.70099631 128.9957031 -24.9666374 127.55429658 -25.234375 126.11328125 C-25.36521484 125.40896973 -25.49605469 124.7046582 -25.63085938 123.97900391 C-28.6257879 107.92285929 -35.47675356 93.79508339 -44.1171875 80.0390625 C-45.55257545 77.72219149 -46.84708558 75.46359609 -48 73 C-52.52490867 77.21138503 -56.02011982 81.93130294 -59.625 86.9375 C-65.57730966 95.10509321 -71.66921396 103.12294503 -78 111 C-78.5141748 111.6403418 -79.02834961 112.28068359 -79.55810547 112.94042969 C-89.08655569 124.78444501 -98.73683337 136.51069131 -108.97265625 147.75390625 C-110.75030988 149.72336836 -112.47210137 151.72659962 -114.1875 153.75 C-117.64537386 157.68343227 -121.23502015 161.48553914 -124.875 165.25 C-125.72227661 166.15443848 -125.72227661 166.15443848 -126.58666992 167.07714844 C-132.47562664 173.07908074 -140.10294871 177.05548575 -148.625 177.3125 C-156.24152 177.21272026 -162.79168834 174.11363838 -168.359375 168.94921875 C-173.58935475 162.73550472 -177.21661801 155.17078762 -176.53930664 146.93945312 C-174.65102127 136.6474858 -167.99031339 129.1416992 -160.625 122.1875 C-159.81289062 121.39408203 -159.00078125 120.60066406 -158.1640625 119.78320312 C-153.25328258 115.01801523 -148.18900284 110.45855195 -143 106 C-141.88255107 105.02634163 -140.76535288 104.05239538 -139.6484375 103.078125 C-133.34979665 97.62317102 -126.96728826 92.31876902 -120.38330078 87.21142578 C-116.61772644 84.28704139 -112.9151059 81.29855108 -109.23828125 78.26342773 C-100.84319938 71.34552567 -92.15852455 64.93040193 -83.29101562 58.63378906 C-80.22774564 56.44928323 -77.18617919 54.23549298 -74.14331055 52.02270508 C-66.47224888 46.45043135 -58.74762678 40.96758699 -50.890625 35.66015625 C-48.21153282 33.84778951 -45.58884575 31.97651184 -42.984375 30.05859375 C-33.37797207 23.11109534 -33.37797207 23.11109534 -29.23828125 22.77734375 C-27.15050156 23.13968568 -25.07389075 23.56515194 -23 24 C-20.10501871 22.02230702 -20.10501871 22.02230702 -18 19 C-15.06738501 15.39062771 -12.26823839 12.32731174 -8.625 9.43359375 C-5.42153902 6.60746351 -2.74024464 3.26721477 0 0 Z " fill="#F8415B" transform="translate(406,105)"/>
<path d="M0 0 C4.361452 0.45070159 6.76542101 3.32895282 9.70239258 6.2824707 C10.2605365 6.83214508 10.81868042 7.38181946 11.39373779 7.94815063 C13.23522795 9.76625207 15.06531546 11.59533638 16.89453125 13.42578125 C18.16886899 14.69302035 19.44350588 15.95995868 20.71842957 17.22660828 C23.38741271 19.88214356 26.05037949 22.54354688 28.7097168 25.20874023 C32.12406199 28.62899225 35.55632807 32.03061567 38.99374866 35.42765522 C41.62998584 38.03809335 44.25471861 40.65986349 46.87625694 43.28505516 C48.13744623 44.54454697 49.40264164 45.80004009 50.6718235 47.05147743 C52.44152653 48.79913791 54.19473872 50.56183015 55.94458008 52.3293457 C56.47488327 52.84638565 57.00518646 53.3634256 57.55155945 53.89613342 C58.98323059 55.36177063 58.98323059 55.36177063 61 58 C60.86720255 61.84653875 58.6844024 63.64451847 56.0625 66.3125 C39.74970531 84.02353423 30.3993717 106.06670478 26.48144531 129.61621094 C25.33256505 136.25995079 23.94774046 141.88023748 18.5 146.3125 C17.9121875 146.80363281 17.324375 147.29476562 16.71875 147.80078125 C13.33719629 150.1601835 10.25323622 150.13916068 6.26269531 150.17700195 C5.08427063 150.18983719 3.90584595 150.20267242 2.69171143 150.21589661 C1.41672791 150.22328354 0.14174438 150.23067047 -1.171875 150.23828125 C-2.48279114 150.246353 -3.79370728 150.25442474 -5.14434814 150.26274109 C-7.92175161 150.27775621 -10.69912961 150.28759924 -13.4765625 150.29516602 C-17.0218031 150.30621259 -20.56641295 150.34059636 -24.11143112 150.38033772 C-27.50655303 150.41288649 -30.90160918 150.41728983 -34.296875 150.42578125 C-35.5637616 150.44328934 -36.83064819 150.46079742 -38.13592529 150.47883606 C-44.97854994 150.46202833 -49.49425126 150.21500789 -55 146 C-60.67509527 139.72752628 -60.4260824 134.36780725 -60.13623047 126.25195312 C-59.70270373 119.08555418 -58.39286081 112.03269102 -57 105 C-56.8443457 104.20996582 -56.68869141 103.41993164 -56.52832031 102.60595703 C-48.45982241 63.30222624 -27.28783848 28.81849093 0 0 Z " fill="#4AAFA3" transform="translate(104,106)"/>
<path d="M0 0 C20.12263726 0 20.12263726 0 28.984375 1.37890625 C29.9753418 1.53190186 29.9753418 1.53190186 30.98632812 1.68798828 C31.9830957 1.84243408 31.9830957 1.84243408 33 2 C34.00450195 2.14477783 34.00450195 2.14477783 35.02929688 2.29248047 C77.17128508 8.40889391 119.18654656 29.4504119 149 60 C149.33 60.99 149.66 61.98 150 63 C148.1875 65.6875 148.1875 65.6875 146 68 C145.34 68 144.68 68 144 68 C143.5978125 68.8971875 143.5978125 68.8971875 143.1875 69.8125 C142.00082594 71.99847854 140.90400887 73.41332594 139 75 C138.34 75 137.68 75 137 75 C136.5978125 75.8971875 136.5978125 75.8971875 136.1875 76.8125 C135.00082594 78.99847854 133.90400887 80.41332594 132 82 C131.34 82 130.68 82 130 82 C129.731875 82.639375 129.46375 83.27875 129.1875 83.9375 C128 86 128 86 125 87 C123.92621094 86.76796875 122.85242188 86.5359375 121.74609375 86.296875 C116.99443652 85.92030988 114.7153695 87.5306526 111.0625 90.25 C110.42570312 90.69947998 109.78890625 91.14895996 109.1328125 91.61206055 C107.77872699 92.56839993 106.43003215 93.53241102 105.08642578 94.50341797 C102.28256605 96.51461153 99.43164866 98.45320842 96.57983398 100.39550781 C94.60122302 101.7435367 92.62696793 103.0974934 90.65625 104.45703125 C90.04910156 104.87033691 89.44195312 105.28364258 88.81640625 105.70947266 C87.56400644 106.59928252 86.34338963 107.53497087 85.15234375 108.50537109 C83.34375 109.94921875 83.34375 109.94921875 80 112 C77.4609375 111.57421875 77.4609375 111.57421875 75 110 C74.00226563 109.36707031 73.00453125 108.73414063 71.9765625 108.08203125 C70.85882534 107.32633319 69.74166634 106.56977947 68.625 105.8125 C57.50261059 98.49471035 45.86926571 93.49052327 33 90 C32.09636719 89.72414063 31.19273437 89.44828125 30.26171875 89.1640625 C20.09534299 86.25938371 10.97308441 86.04505566 0 85 C0 56.95 0 28.9 0 0 Z " fill="#F8D338" transform="translate(256,43)"/>
<path d="M0 0 C1.9375 1.1875 1.9375 1.1875 3 3 C3.68468232 8.46949717 1.775621 11.58711967 -1.3125 15.875 C-1.76326904 16.52428467 -2.21403809 17.17356934 -2.6784668 17.8425293 C-3.63172038 19.214116 -4.59058651 20.58181699 -5.5546875 21.94580078 C-6.94240774 23.91814506 -8.3039517 25.90559078 -9.65625 27.90234375 C-16.02027242 37.28715861 -22.61360767 46.50105414 -29.29541016 55.66162109 C-30.44302468 57.23593389 -31.58849368 58.81181268 -32.73193359 60.38916016 C-40.39640357 70.96017865 -48.30211511 81.25390596 -56.61914062 91.31933594 C-58.48219545 93.5868871 -60.30437336 95.88581347 -62.125 98.1875 C-69.12280307 106.95316911 -76.42221659 115.46036533 -83.97265625 123.75390625 C-85.75030988 125.72336836 -87.47210137 127.72659962 -89.1875 129.75 C-92.64537386 133.68343227 -96.23502015 137.48553914 -99.875 141.25 C-100.72227661 142.15443848 -100.72227661 142.15443848 -101.58666992 143.07714844 C-107.47562664 149.07908074 -115.10294871 153.05548575 -123.625 153.3125 C-131.24152 153.21272026 -137.79168834 150.11363838 -143.359375 144.94921875 C-148.58935475 138.73550472 -152.21661801 131.17078762 -151.53930664 122.93945312 C-149.65102127 112.6474858 -142.99031339 105.1416992 -135.625 98.1875 C-134.81289062 97.39408203 -134.00078125 96.60066406 -133.1640625 95.78320312 C-128.25328258 91.01801523 -123.18900284 86.45855195 -118 82 C-116.88255107 81.02634163 -115.76535288 80.05239538 -114.6484375 79.078125 C-108.34979665 73.62317102 -101.96728826 68.31876902 -95.38330078 63.21142578 C-91.61772644 60.28704139 -87.9151059 57.29855108 -84.23828125 54.26342773 C-75.84319938 47.34552567 -67.15852455 40.93040193 -58.29101562 34.63378906 C-55.22774564 32.44928323 -52.18617919 30.23549298 -49.14331055 28.02270508 C-41.47400058 22.45170379 -33.74928858 16.97273267 -25.8984375 11.66015625 C-23.20368967 9.83628033 -20.55133639 7.9645492 -17.9140625 6.05859375 C-16.58864824 5.12224496 -15.26313116 4.18604169 -13.9375 3.25 C-13.34235596 2.80696533 -12.74721191 2.36393066 -12.1340332 1.9074707 C-7.7693989 -1.12802077 -5.09359886 -1.34206343 0 0 Z " fill="#323951" transform="translate(381,129)"/>
<path d="M0 0 C0.81690308 -0.00807175 1.63380615 -0.01614349 2.47546387 -0.02445984 C4.210509 -0.03830856 5.94558146 -0.04902718 7.68066406 -0.05688477 C10.3058852 -0.07397229 12.92980498 -0.11783365 15.5546875 -0.16210938 C27.32931693 -0.27219337 37.08709937 0.53069498 46.015625 9.078125 C52.38360029 16.602677 54.75836861 24.17139838 54.3046875 33.96875 C53.30691298 41.04618454 49.94912574 46.52007933 45.84375 52.23828125 C46.25367188 52.75777344 46.66359375 53.27726562 47.0859375 53.8125 C47.62476563 54.50988281 48.16359375 55.20726562 48.71875 55.92578125 C49.25242188 56.61027344 49.78609375 57.29476562 50.3359375 58 C54.80490345 64.63398314 54.52133853 71.47989262 53.84375 79.23828125 C52.03313353 86.85110049 48.19573063 93.25225074 41.703125 97.70703125 C34.53593641 101.90008035 27.697585 103.54929919 19.4609375 103.57421875 C18.68364288 103.58087555 17.90634827 103.58753235 17.10549927 103.59439087 C15.47351428 103.60445536 13.84148865 103.60920983 12.20947266 103.60888672 C9.71839103 103.61328188 7.22905281 103.64972387 4.73828125 103.6875 C3.14583934 103.69336524 1.5533891 103.69733659 -0.0390625 103.69921875 C-0.77875275 103.71358978 -1.51844299 103.72796082 -2.2805481 103.74276733 C-5.91274838 103.71073716 -7.99487432 103.33918453 -11.10107422 101.39697266 C-14.91672948 97.38912948 -14.31620917 92.93119047 -14.33325195 87.71533203 C-14.33982315 86.84510406 -14.34639435 85.9748761 -14.35316467 85.07827759 C-14.37288576 82.19671544 -14.38455638 79.31520533 -14.39453125 76.43359375 C-14.39860678 75.44965511 -14.4026823 74.46571648 -14.40688133 73.45196152 C-14.42773497 68.24613403 -14.4420409 63.04033287 -14.45141602 57.83447266 C-14.46249122 52.45517237 -14.49690603 47.07628451 -14.53658772 41.6971302 C-14.56271446 37.56215641 -14.57110425 33.42728159 -14.57469749 29.29223251 C-14.57957206 27.30908288 -14.5912107 25.32593791 -14.60973549 23.3428688 C-14.6340476 20.56825131 -14.6331767 17.79471063 -14.6262207 15.02001953 C-14.63903076 14.20114258 -14.65184082 13.38226563 -14.66503906 12.53857422 C-14.62878197 8.57122317 -14.44005765 6.68333658 -12.25187683 3.25192261 C-8.47403482 -0.37812202 -4.99203839 0.04670723 0 0 Z " fill="#323952" transform="translate(142.15625,323.76171875)"/>
<path d="M0 0 C5.65126116 1.88375372 7.66808757 6.37058103 10.26763916 11.51908875 C10.59697449 12.18696915 10.92630981 12.85484955 11.265625 13.54296875 C11.61510193 14.2414241 11.96457886 14.93987946 12.324646 15.65950012 C13.05688156 17.12629935 13.78618749 18.59456438 14.51269531 20.06420898 C15.62844991 22.31947327 16.75490244 24.56915384 17.8828125 26.81835938 C18.59438636 28.24707907 19.30534587 29.67610495 20.015625 31.10546875 C20.35305725 31.77942184 20.6904895 32.45337494 21.03814697 33.14775085 C23.375 37.8939142 23.375 37.8939142 23.375 40.125 C24.035 40.125 24.695 40.125 25.375 40.125 C25.63692139 39.27953613 25.89884277 38.43407227 26.16870117 37.56298828 C27.43720632 33.9477101 28.9846464 30.54703842 30.67578125 27.1171875 C30.99403366 26.46928253 31.31228607 25.82137756 31.6401825 25.15383911 C32.31119579 23.79302658 32.98447606 22.43332976 33.65991211 21.07470703 C34.68526981 19.00450276 35.69323572 16.92638645 36.70117188 14.84765625 C37.35831747 13.52030925 38.0164866 12.19346838 38.67578125 10.8671875 C39.11982048 9.94206863 39.11982048 9.94206863 39.5728302 8.9982605 C41.56997659 5.04481323 43.62362984 2.5019093 47.375 0.125 C51.15466086 0.125 53.43577819 0.47464576 56.55749512 2.63624573 C59.18260407 6.23087218 58.93396432 9.66159768 58.89257812 13.94506836 C58.8995874 14.83494949 58.90659668 15.72483063 58.91381836 16.64167786 C58.93142208 19.58305069 58.91976614 22.52346113 58.90625 25.46484375 C58.90894447 27.50981328 58.91282651 29.55478156 58.91784668 31.5997467 C58.92374515 35.88620193 58.91516828 40.17232376 58.89648438 44.45874023 C58.87370921 49.95131735 58.88680684 55.44311204 58.91077423 60.93566036 C58.92523497 65.15904118 58.92062466 69.38223682 58.91026306 73.60562325 C58.9075958 75.63061173 58.91086551 77.65561705 58.92018127 79.68058586 C58.93034964 82.51268848 58.91484101 85.34352844 58.89257812 88.17553711 C58.90067505 89.01154449 58.90877197 89.84755188 58.91711426 90.70889282 C58.85981039 94.64722909 58.6464233 96.6780398 56.55749512 100.11793518 C53.51496839 102.91590174 51.4708344 103.19685674 47.375 103.125 C43.94758371 101.03874661 42.65018963 99.9505689 41.375 96.125 C41.26051523 94.54538841 41.19877068 92.96166148 41.16967773 91.37817383 C41.1397599 89.93701958 41.1397599 89.93701958 41.10923767 88.4667511 C41.09252518 87.43229355 41.07581268 86.397836 41.05859375 85.33203125 C41.03781265 84.27086594 41.01703156 83.20970062 40.99562073 82.11637878 C40.93018762 78.72348563 40.87126907 75.3305145 40.8125 71.9375 C40.76930886 69.63866378 40.72569438 67.33983547 40.68164062 65.04101562 C40.5745126 59.4024264 40.47273449 53.76375944 40.375 48.125 C40.12331055 48.62427002 39.87162109 49.12354004 39.61230469 49.63793945 C38.45991185 51.90971662 37.29266921 54.17353947 36.125 56.4375 C35.72925781 57.22318359 35.33351563 58.00886719 34.92578125 58.81835938 C31.09267371 66.20180423 31.09267371 66.20180423 27.375 68.125 C23.9375 68.6875 23.9375 68.6875 20.375 68.125 C16.45912159 64.06750963 13.95876649 59.81760111 11.5625 54.75 C11.25119141 54.10933594 10.93988281 53.46867187 10.61914062 52.80859375 C9.86359644 51.25101035 9.11820261 49.68850982 8.375 48.125 C8.36913376 48.7152446 8.36326752 49.3054892 8.35722351 49.91362 C8.29324332 56.06211264 8.2088116 62.2100841 8.11254883 68.3581543 C8.07931366 70.65202967 8.05127736 72.94598654 8.02856445 75.23999023 C7.99499326 78.53925273 7.94267465 81.8377693 7.88671875 85.13671875 C7.87713387 86.67292122 7.87713387 86.67292122 7.86735535 88.24015808 C7.68162558 97.25369776 7.68162558 97.25369776 4.375 101.125 C1.375 103.125 1.375 103.125 -2.0625 103.0625 C-6.44397188 101.90948108 -7.30476152 100.96682871 -9.625 97.125 C-10.20485338 94.14448292 -10.19230516 91.22086582 -10.17431641 88.19140625 C-10.18453827 87.30137909 -10.19476013 86.41135193 -10.20529175 85.49435425 C-10.23304521 82.55846103 -10.23117414 79.62350862 -10.2265625 76.6875 C-10.23433766 74.64395804 -10.24300726 72.60041931 -10.25253296 70.55688477 C-10.2674483 66.27642329 -10.26688109 61.99629177 -10.25634766 57.71582031 C-10.24474898 52.23086543 -10.27864364 46.74725926 -10.325037 41.26252747 C-10.35449994 37.04341744 -10.35625708 32.8246329 -10.35001755 28.60543823 C-10.35104427 26.58321457 -10.36152556 24.56097275 -10.38164139 22.53884888 C-10.406322 19.71120468 -10.39282512 16.88619579 -10.36962891 14.05859375 C-10.39256012 12.80693924 -10.39256012 12.80693924 -10.41595459 11.52999878 C-10.31633925 6.0357085 -10.31633925 6.0357085 -8.36698532 3.46780396 C-5.49175513 0.90296821 -3.8808345 0.13382188 0 0 Z " fill="#323952" transform="translate(231.625,323.875)"/>
<path d="M0 0 C1.22263046 -0.00241196 2.44526093 -0.00482391 3.7049408 -0.00730896 C6.2845281 -0.00633119 8.86413656 0.00704527 11.44360352 0.03198242 C15.39216313 0.06631772 19.33848798 0.05262781 23.28710938 0.03320312 C25.79558244 0.04010083 28.30404974 0.04977252 30.8125 0.0625 C31.99280289 0.05754013 33.17310577 0.05258026 34.38917542 0.04747009 C42.51806781 0.16434835 42.51806781 0.16434835 46.56030273 2.44946289 C49.06437497 5.51625571 49.33984375 7.70173563 49.33984375 11.62890625 C47.99421976 14.57646357 47.25429831 16.17167897 44.33984375 17.62890625 C37.40984375 17.62890625 30.47984375 17.62890625 23.33984375 17.62890625 C23.33984375 40.39890625 23.33984375 63.16890625 23.33984375 86.62890625 C30.26984375 86.62890625 37.19984375 86.62890625 44.33984375 86.62890625 C49.33984375 91.62890625 49.33984375 91.62890625 49.90234375 94.62890625 C49.21626718 98.28798129 47.91250061 99.98058301 45.33984375 102.62890625 C42.78351052 103.90707287 40.9297056 103.78391781 38.06738281 103.82177734 C36.96573792 103.83784027 35.86409302 103.8539032 34.72906494 103.87045288 C29.68364017 103.91485711 24.6383479 103.95597328 19.59277344 103.97900391 C16.93069268 103.99232731 14.27042781 104.02283827 11.60839844 104.06103516 C7.77385349 104.11578716 3.94035192 104.13767754 0.10546875 104.15234375 C-1.67606598 104.18634781 -1.67606598 104.18634781 -3.49359131 104.22103882 C-12.70780157 104.19747072 -12.70780157 104.19747072 -16.40820312 101.22509766 C-19.48395324 97.67918192 -19.48395324 97.67918192 -19.41015625 94.62890625 C-19.425625 93.98953125 -19.44109375 93.35015625 -19.45703125 92.69140625 C-18.66015625 90.62890625 -18.66015625 90.62890625 -12.66015625 85.62890625 C-6.39015625 85.62890625 -0.12015625 85.62890625 6.33984375 85.62890625 C6.33984375 63.18890625 6.33984375 40.74890625 6.33984375 17.62890625 C-0.59015625 17.62890625 -7.52015625 17.62890625 -14.66015625 17.62890625 C-18.66015625 12.62890625 -18.66015625 12.62890625 -19.28515625 9.12890625 C-18.61623217 5.38293138 -17.7370469 3.97897248 -14.75466919 1.66116333 C-10.18896265 -0.58899365 -4.97989798 -0.05603473 0 0 Z " fill="#353C54" transform="translate(334.66015625,323.37109375)"/>
<path d="M0 0 C4.00125 -0.0825 8.0025 -0.165 12.125 -0.25 C13.37555176 -0.28641602 14.62610352 -0.32283203 15.91455078 -0.36035156 C23.75753989 -0.438693 27.16567014 0.42129213 32.875 5.75 C35.15034045 10.30068091 34.45329614 14.6134471 32.9375 19.25 C30.48439426 22.73182751 27.96349903 24.58382556 24 26 C19.83615986 26.47150055 15.7458276 26.37809864 11.5625 26.25 C7.746875 26.1675 3.93125 26.085 0 26 C0 17.42 0 8.84 0 0 Z " fill="#DDE7EC" transform="translate(145,384)"/>
<path d="M0 0 C5.7234375 -0.12375 5.7234375 -0.12375 11.5625 -0.25 C12.75174072 -0.28641602 13.94098145 -0.32283203 15.16625977 -0.36035156 C21.70092789 -0.42856428 25.71815288 0.05312523 31 4 C33.94376599 7.41856695 34.53900646 10.49211711 34.3515625 15.0078125 C33.58697269 19.34048808 31.20140141 22.12776734 27.7277832 24.6496582 C24.56942491 26.21314873 22.54963451 26.34691745 19.04296875 26.29296875 C18.04031982 26.28547607 17.0376709 26.2779834 16.00463867 26.27026367 C14.74498291 26.24295166 13.48532715 26.21563965 12.1875 26.1875 C8.165625 26.125625 4.14375 26.06375 0 26 C0 17.42 0 8.84 0 0 Z " fill="#DDE7EC" transform="translate(145,341)"/>
</svg>
